<svg xmlns="http://www.w3.org/2000/svg" xmlns:xlink="http://www.w3.org/1999/xlink" width="189.334" height="27.948" viewBox="0 0 189.334 27.948">
  <defs>
    <clipPath id="clip-path">
      <rect id="사각형_2864" data-name="사각형 2864" width="189.334" height="27.948" fill="none"/>
    </clipPath>
  </defs>
  <g id="팜스타트_변경로고" transform="translate(0 0)">
    <g id="그룹_5006" data-name="그룹 5006" transform="translate(0 0)" clip-path="url(#clip-path)">
      <path id="패스_3497" data-name="패스 3497" d="M218.626,34.94a11.515,11.515,0,0,1-3.414-1.453l1.716-3.922a10.091,10.091,0,0,0,2.907,1.331,11.818,11.818,0,0,0,3.326.49q3.291,0,3.292-1.716a1.2,1.2,0,0,0-.893-1.155,12.62,12.62,0,0,0-2.749-.6,25.613,25.613,0,0,1-3.642-.805,5.6,5.6,0,0,1-2.486-1.611,4.725,4.725,0,0,1-1.051-3.292,5.278,5.278,0,0,1,1-3.169,6.459,6.459,0,0,1,2.871-2.154,11.618,11.618,0,0,1,4.43-.77,16.537,16.537,0,0,1,3.764.437,10.675,10.675,0,0,1,3.134,1.208l-1.751,3.887a9.858,9.858,0,0,0-5.147-1.4,5.014,5.014,0,0,0-2.5.49A1.445,1.445,0,0,0,220.6,22a1.244,1.244,0,0,0,.91,1.226,15.571,15.571,0,0,0,2.837.665,24.455,24.455,0,0,1,3.607.806,5.512,5.512,0,0,1,2.433,1.611,4.664,4.664,0,0,1,1.033,3.222,5.09,5.09,0,0,1-1.015,3.116,6.51,6.51,0,0,1-2.925,2.119,12.344,12.344,0,0,1-4.534.753,16.365,16.365,0,0,1-4.325-.578" transform="translate(-104.702 -7.842)"/>
      <path id="패스_3498" data-name="패스 3498" d="M260.615,31.538a9.079,9.079,0,0,1-2.364.3,6.751,6.751,0,0,1-4.937-1.716,6.749,6.749,0,0,1-1.751-5.042V17.337h-2.732v-4.2h2.732V8.548h5.218v4.588h4.447v4.2H256.78v7.669a2.667,2.667,0,0,0,.578,1.838,2.067,2.067,0,0,0,1.628.648,3.259,3.259,0,0,0,2.1-.7l1.4,3.852a5.266,5.266,0,0,1-1.873.893" transform="translate(-121.058 -4.159)"/>
      <path id="패스_3499" data-name="패스 3499" d="M290.9,18.2q2.223,2.084,2.223,6.286V35.238H288.26V32.892q-1.506,2.626-5.463,2.626a8.061,8.061,0,0,1-3.571-.735,5.335,5.335,0,0,1-3.117-4.973A5,5,0,0,1,278,25.678q1.891-1.505,5.813-1.506h4.1a3.824,3.824,0,0,0-.421-1.961q-.945-1.751-3.677-1.751a8.673,8.673,0,0,0-2.819.473,7.5,7.5,0,0,0-2.364,1.278l-1.856-3.817a10.62,10.62,0,0,1,3.5-1.681,15.217,15.217,0,0,1,4.237-.6A9,9,0,0,1,290.9,18.2m-4.43,12.991a3.478,3.478,0,0,0,1.436-1.908V27.359h-3.537q-3.187,0-3.187,2.206a2.012,2.012,0,0,0,.771,1.664,3.347,3.347,0,0,0,2.136.613,4.329,4.329,0,0,0,2.381-.648" transform="translate(-134.329 -7.842)"/>
      <path id="패스_3500" data-name="패스 3500" d="M324.45,16.819a8.89,8.89,0,0,1,3.642-.7v5.043q-.911-.069-1.191-.07a4.579,4.579,0,0,0-3.467,1.314,5.488,5.488,0,0,0-1.261,3.94v8.895h-5.218V16.4h4.973v2.486a5.923,5.923,0,0,1,2.521-2.066" transform="translate(-154.201 -7.842)"/>
      <path id="패스_3501" data-name="패스 3501" d="M353.9,31.538a9.072,9.072,0,0,1-2.364.3,6.752,6.752,0,0,1-4.937-1.716,6.749,6.749,0,0,1-1.751-5.042V17.337H342.12v-4.2h2.732V8.548h5.218v4.588h4.447v4.2h-4.447v7.669a2.669,2.669,0,0,0,.578,1.838,2.067,2.067,0,0,0,1.628.648,3.258,3.258,0,0,0,2.1-.7l1.4,3.852a5.264,5.264,0,0,1-1.874.893" transform="translate(-166.443 -4.159)"/>
      <path id="패스_3502" data-name="패스 3502" d="M14.983,8.637a7.937,7.937,0,0,1,3.414,2.99A8.5,8.5,0,0,1,19.6,16.213a8.523,8.523,0,0,1-1.206,4.57,7.791,7.791,0,0,1-3.414,2.99,12.127,12.127,0,0,1-5.2,1.036H5.232v6.557H0V7.584H9.785a11.974,11.974,0,0,1,5.2,1.053m-1.9,10.617A3.824,3.824,0,0,0,14.3,16.213a3.878,3.878,0,0,0-1.223-3.057,5.268,5.268,0,0,0-3.6-1.087H5.232v8.255H9.479a5.322,5.322,0,0,0,3.6-1.07" transform="translate(0 -3.69)" fill="#ab63ff"/>
      <path id="패스_3503" data-name="패스 3503" d="M59.4,13.5q1.97,2.039,1.971,6.047V30.014H56.34V20.366a4.889,4.889,0,0,0-.918-3.245,3.258,3.258,0,0,0-2.616-1.07,3.876,3.876,0,0,0-3.024,1.24,5.338,5.338,0,0,0-1.121,3.686v9.037H43.6V4.806h5.062v8.833a6.869,6.869,0,0,1,2.429-1.614,8.246,8.246,0,0,1,3.075-.56A6.943,6.943,0,0,1,59.4,13.5" transform="translate(-21.212 -2.338)" fill="#ab63ff"/>
      <path id="패스_3504" data-name="패스 3504" d="M97.85,19.8q2.157,2.022,2.157,6.1v10.43H95.285V34.048q-1.461,2.548-5.3,2.548a7.821,7.821,0,0,1-3.466-.713A5.176,5.176,0,0,1,83.5,31.058a4.846,4.846,0,0,1,1.835-4.009q1.834-1.46,5.64-1.461h3.974a3.714,3.714,0,0,0-.407-1.9q-.917-1.7-3.567-1.7a8.4,8.4,0,0,0-2.735.459,7.276,7.276,0,0,0-2.293,1.24l-1.8-3.7a10.315,10.315,0,0,1,3.4-1.631,14.768,14.768,0,0,1,4.111-.578,8.738,8.738,0,0,1,6.2,2.022m-4.3,12.6a3.377,3.377,0,0,0,1.393-1.852V28.68H91.514q-3.092,0-3.092,2.14a1.951,1.951,0,0,0,.748,1.614,3.247,3.247,0,0,0,2.072.595,4.2,4.2,0,0,0,2.31-.629" transform="translate(-40.621 -8.647)" fill="#ab63ff"/>
      <path id="패스_3505" data-name="패스 3505" d="M130.4,18.453a8.627,8.627,0,0,1,3.533-.679v4.892q-.884-.068-1.155-.068a4.442,4.442,0,0,0-3.363,1.274,5.328,5.328,0,0,0-1.223,3.822v8.629h-5.062V18.046h4.824v2.412a5.75,5.75,0,0,1,2.446-2" transform="translate(-59.902 -8.647)" fill="#ab63ff"/>
      <path id="패스_3506" data-name="패스 3506" d="M184.273,16.558a8.615,8.615,0,0,0-5.542,2.014,9.426,9.426,0,0,1,2.537,4.7,3.58,3.58,0,0,1,6.588,1.945V35.641h5.072V25.212a8.664,8.664,0,0,0-8.654-8.654" transform="translate(-86.954 -8.056)" fill="#8b27ff"/>
      <path id="패스_3507" data-name="패스 3507" d="M163.612,19.1a8.651,8.651,0,0,0-14.773,6.115V35.642h5.072V25.213a3.583,3.583,0,0,1,7.166,0V35.642h5.071V25.213a8.627,8.627,0,0,0-2.535-6.115" transform="translate(-72.411 -8.056)" fill="#ab63ff"/>
      <path id="패스_3508" data-name="패스 3508" d="M165.881,3.583A3.583,3.583,0,1,1,162.3,0a3.583,3.583,0,0,1,3.583,3.583" transform="translate(-77.216 0)" fill="#ab63ff"/>
      <path id="패스_3509" data-name="패스 3509" d="M190.8,3.583A3.583,3.583,0,1,1,187.213,0,3.583,3.583,0,0,1,190.8,3.583" transform="translate(-89.337 0)" fill="#8b27ff"/>
    </g>
  </g>
</svg>
